<svg xmlns="http://www.w3.org/2000/svg" data-logo-mark="agentlane-brain-circuit" viewBox="0 0 64 64" role="img" aria-label="Agentlane">
  <g shape-rendering="crispEdges">
    <rect x="24" y="4" width="16" height="4" fill="#121212"/>
    <rect x="18" y="8" width="6" height="4" fill="#121212"/>
    <rect x="40" y="8" width="6" height="4" fill="#121212"/>
    <rect x="12" y="12" width="6" height="8" fill="#121212"/>
    <rect x="46" y="12" width="6" height="8" fill="#121212"/>
    <rect x="8" y="20" width="4" height="24" fill="#121212"/>
    <rect x="52" y="20" width="4" height="24" fill="#121212"/>
    <rect x="12" y="44" width="6" height="8" fill="#121212"/>
    <rect x="46" y="44" width="6" height="8" fill="#121212"/>
    <rect x="18" y="52" width="8" height="4" fill="#121212"/>
    <rect x="38" y="52" width="8" height="4" fill="#121212"/>
    <rect x="26" y="56" width="12" height="4" fill="#121212"/>
    <rect x="24" y="8" width="16" height="4" fill="#22bfe8"/>
    <rect x="18" y="12" width="10" height="8" fill="#22bfe8"/>
    <rect x="36" y="12" width="10" height="8" fill="#22bfe8"/>
    <rect x="12" y="20" width="18" height="24" fill="#22bfe8"/>
    <rect x="34" y="20" width="18" height="24" fill="#22bfe8"/>
    <rect x="18" y="44" width="10" height="8" fill="#22bfe8"/>
    <rect x="36" y="44" width="10" height="8" fill="#22bfe8"/>
    <rect x="26" y="52" width="12" height="4" fill="#22bfe8"/>
    <rect x="30" y="10" width="4" height="44" fill="#121212"/>
    <rect x="31" y="12" width="2" height="40" fill="#fffdf4"/>
    <rect x="16" y="26" width="8" height="4" fill="#fffdf4"/>
    <rect x="22" y="30" width="4" height="8" fill="#fffdf4"/>
    <rect x="16" y="38" width="10" height="4" fill="#fffdf4"/>
    <rect x="40" y="22" width="8" height="4" fill="#fffdf4"/>
    <rect x="38" y="26" width="4" height="8" fill="#fffdf4"/>
    <rect x="38" y="38" width="10" height="4" fill="#fffdf4"/>
    <rect x="20" y="18" width="4" height="4" fill="#7de8ff"/>
    <rect x="42" y="46" width="4" height="4" fill="#7de8ff"/>
  </g>
</svg>
